<svg xmlns="http://www.w3.org/2000/svg" viewBox="0 0 2962 807" role="img" aria-label="Qlicker">
  <path d="M426 553 391 596 485 667C449 690 405 702 353 702C164 702 84 544 84 388C84 232 164 74 353 74C541 74 621 232 621 388C621 480 593 572 530 632ZM683 749 581 671C653 602 689 498 689 388C689 193 577 16 353 16C128 16 16 193 16 388C16 583 128 760 353 760C427 760 489 741 538 707L649 791ZM784 745H847V31H784ZM969 745H1032V229H969ZM969 132H1032V31H969ZM1580 391C1566 273 1481 214 1371 214C1213 214 1127 339 1127 487C1127 635 1213 760 1371 760C1486 760 1567 684 1584 560H1521C1513 646 1449 707 1371 707C1250 707 1190 597 1190 487C1190 377 1250 267 1371 267C1453 267 1500 314 1517 391ZM1672 745H1735V549L1837 464L2041 745H2120L1885 420L2105 229H2021L1735 479V31H1672ZM2606 504C2611 359 2545 214 2379 214C2215 214 2146 351 2146 487C2146 634 2215 760 2379 760C2509 760 2577 692 2604 575H2541C2521 653 2471 707 2379 707C2258 707 2210 596 2209 504ZM2209 451C2219 357 2276 267 2379 267C2481 267 2540 356 2543 451ZM2691 745H2754V470C2754 363 2832 279 2946 285V222C2853 218 2783 267 2751 350H2749V229H2691Z" fill="currentColor"/>
</svg>
